<svg width="1643" height="1645" viewBox="0 0 1643 1645" fill="none" xmlns="http://www.w3.org/2000/svg" role="img" aria-label="Hosanna Print">
  <path d="M1611.9 830.114C1510.18 825.219 1410.25 857.194 1316.58 903.044C1218.92 950.826 1131.68 1011.78 1053.74 1086.62L920.582 1205.29C911.422 1213.46 896.897 1207.21 896.518 1194.94L892.128 1050.69C891.64 1034.54 904.792 1015.77 919.389 1008.11L1194.87 863.698C1284.25 816.836 1365.94 763.689 1447.07 703.459C1496.61 666.679 1544.19 624.46 1585.82 577.292C1595.48 566.326 1598.3 550.917 1593.22 537.205C1565.69 462.776 1527.7 393.424 1481.05 330.937C1463.17 306.982 1430.63 299.088 1404.04 312.727C1299 366.579 1204.25 444.874 1125.27 526.005C1052.37 600.885 991.453 678.06 920.708 760.943C912.289 770.806 896.175 765.495 895.199 752.561C891.026 697.588 891.405 643.826 894.946 589.938C895.886 575.738 923.707 554.277 935.143 545.371C1067.26 442.652 1208.15 338.343 1320.83 213.242C1333.64 199.024 1331.58 176.913 1316.29 165.387C1251.73 116.701 1179.75 77.301 1102.38 49.1916C1070.96 37.7744 1035.81 48.8122 1016.62 76.181L1016.29 76.6326L882.878 266.841C886.329 208.147 903.257 157.962 918.558 102.412C924.556 80.6431 930.427 58.6397 936.028 36.4556C939.749 21.6783 929.596 6.90091 914.439 5.20278C883.944 1.77039 852.943 0 821.527 0C790.111 0 759.11 1.77039 728.615 5.20278C713.458 6.91898 703.305 21.6783 707.026 36.4556C712.627 58.6216 718.498 80.625 724.496 102.412C739.798 157.962 756.725 208.147 760.176 266.841L626.76 76.6326L626.435 76.181C607.249 48.8122 572.093 37.7924 540.677 49.1916C463.283 77.301 391.309 116.683 326.742 165.387C311.459 176.913 309.399 199.024 322.208 213.242C434.884 338.343 575.779 442.652 707.894 545.371C719.329 554.277 747.15 575.738 748.09 589.938C751.631 643.826 752.01 697.588 747.837 752.561C746.861 765.495 730.747 770.806 722.328 760.943C651.583 678.042 590.665 600.867 517.77 526.005C438.768 444.874 344.013 366.579 238.997 312.727C212.404 299.088 179.868 306.982 161.983 330.937C115.337 393.442 77.3448 462.795 49.8126 537.205C44.7362 550.917 47.5544 566.326 57.2196 577.292C98.8431 624.46 146.41 666.679 195.965 703.459C277.098 763.689 358.791 816.836 448.162 863.698L723.647 1008.11C738.244 1015.77 751.396 1034.54 750.908 1050.69L746.518 1194.94C746.139 1207.21 731.614 1213.46 722.455 1205.29L589.292 1086.62C511.356 1011.78 424.117 950.826 326.453 903.044C232.783 857.194 132.861 825.219 31.1327 830.114C13.085 830.982 -0.861771 846.337 0.0415159 864.384C3.11269 925.571 12.8682 998.41 28.6035 1059.09C33.4812 1077.88 42.8935 1095.22 56.2441 1109.33C77.9229 1132.24 101.968 1153.45 128.236 1172.9C299.283 1299.68 513.615 1357.87 714.921 1428.92C733.439 1435.46 742.2 1450.38 741.948 1471.74L740.177 1617.43C740.014 1630.85 750.366 1642.06 763.753 1642.99C782.83 1644.31 802.088 1645 821.509 1645C840.93 1645 860.188 1644.33 879.265 1642.99C892.652 1642.06 903.004 1630.85 902.841 1617.43L901.071 1471.74C900.818 1450.38 909.58 1435.46 928.097 1428.92C1129.4 1357.87 1343.74 1299.68 1514.78 1172.9C1541.03 1153.45 1565.08 1132.24 1586.76 1109.33C1600.11 1095.22 1609.52 1077.88 1614.4 1059.07C1630.13 998.392 1639.89 925.571 1642.96 864.384C1643.86 846.355 1629.92 831 1611.87 830.114H1611.9Z" fill="#798C7D"/>
</svg>
